if (_typeface_js && _typeface_js.loadFace) _typeface_js.loadFace({"glyphs":{"S":{"x_min":122,"x_max":487.28125,"ha":557,"o":"m 317 124 l 440 708 q 241 587 340 587 q 195 595 217 587 q 122 688 122 622 q 141 739 122 715 q 193 764 160 764 q 245 741 226 764 q 264 688 264 719 q 228 636 264 658 q 260 625 242 625 q 452 758 330 625 l 487 758 l 362 124 l 317 124 "},"/":{"x_min":0,"x_max":386,"ha":386,"o":"m 386 964 l 54 -19 l 0 -19 l 333 964 l 386 964 "},"K":{"x_min":58,"x_max":370.5,"ha":488,"o":"m 370 495 l 298 463 l 298 240 l 255 223 l 255 448 l 175 418 l 175 189 l 132 171 l 132 404 l 58 377 l 58 527 l 132 556 l 132 768 l 58 740 l 58 891 l 132 919 l 132 1158 l 175 1174 l 175 934 l 255 963 l 255 1208 l 298 1224 l 298 979 l 370 1005 l 370 858 l 298 827 l 298 616 l 370 643 l 370 495 m 255 601 l 255 813 l 171 781 l 171 569 l 255 601 "},"7":{"x_min":-4,"x_max":555.734375,"ha":589,"o":"m 551 660 l 257 -91 q 234 -141 251 -108 q 179 -164 215 -164 q 132 -147 150 -164 q 126 -105 121 -118 l 457 597 l 446 609 l 101 609 l 79 593 l 36 518 q 18 511 27 511 q -4 526 1 511 l 33 662 q 66 694 41 694 l 534 694 q 555 678 555 694 q 551 660 555 671 "},"d":{"x_min":47,"x_max":701.171875,"ha":694,"o":"m 483 587 l 483 780 q 434 875 483 875 q 387 863 415 875 l 377 887 l 565 964 l 596 964 l 596 163 q 644 69 596 69 q 691 80 663 69 l 701 57 l 513 -19 l 483 -19 l 483 69 q 298 -19 396 -19 q 112 79 183 -19 q 47 288 47 168 q 128 527 47 420 q 345 641 216 641 q 483 587 431 641 m 483 118 l 483 421 q 446 542 483 489 q 338 599 405 599 q 236 549 282 599 q 173 336 173 478 q 227 133 173 211 q 363 56 282 56 q 483 118 426 56 "},",":{"x_min":75,"x_max":277,"ha":347,"o":"m 75 -231 l 75 -201 q 177 -136 133 -185 q 221 -27 221 -87 q 202 0 221 0 q 180 -10 198 0 q 144 -20 162 -20 q 93 0 112 -20 q 75 53 75 21 q 100 112 75 88 q 162 136 126 136 q 247 88 215 136 q 277 -8 277 47 q 214 -151 277 -90 q 75 -231 159 -207 "},"Y":{"x_min":-125,"x_max":715.28125,"ha":778,"o":"m 715 183 q 652 55 715 115 q 520 -20 595 -1 q 415 -36 463 -36 q 276 29 315 -36 q 259 88 259 55 q 304 197 259 144 q 422 276 348 251 q 529 295 476 295 q 647 268 597 295 l 647 713 l 276 713 l 276 843 l 647 843 l 647 937 l -125 937 l -125 1067 l 715 1067 l 715 183 "},"E":{"x_min":72,"x_max":851.09375,"ha":894,"o":"m 526 858 l 526 183 q 464 54 526 115 q 333 -20 406 -1 q 227 -36 274 -36 q 87 29 126 -36 q 72 87 72 55 q 116 196 72 143 q 234 276 161 250 q 341 294 288 294 q 460 268 409 294 l 460 1083 l 480 1083 l 512 1041 q 605 960 559 1001 q 769 778 708 867 q 851 544 853 653 q 798 373 849 481 q 707 211 758 286 q 656 159 656 137 q 666 190 656 168 q 738 352 702 270 q 791 544 789 476 q 724 715 793 631 q 595 827 673 779 q 526 858 526 870 "},"y":{"x_min":8,"x_max":686,"ha":694,"o":"m 341 24 l 124 477 q 8 595 71 588 l 8 621 l 296 621 l 296 595 q 221 545 221 595 q 251 460 221 520 l 395 163 l 527 489 q 545 560 545 534 q 483 595 545 595 l 483 621 l 686 621 l 686 595 q 602 522 631 595 l 337 -126 q 233 -262 301 -215 q 133 -300 180 -300 q 67 -279 95 -300 q 39 -222 39 -258 q 110 -161 39 -161 q 165 -173 137 -161 q 202 -186 194 -186 q 303 -68 256 -186 l 341 24 "},"\"":{"x_min":91,"x_max":476,"ha":567,"o":"m 175 544 l 142 544 q 104 756 134 598 q 91 864 91 835 q 159 940 91 940 q 227 864 227 940 q 213 756 227 835 q 175 544 183 598 m 424 544 l 391 544 q 353 756 383 598 q 340 864 340 835 q 408 940 340 940 q 476 864 476 940 q 462 756 476 835 q 424 544 432 598 "},"g":{"x_min":39,"x_max":669.5625,"ha":694,"o":"m 490 596 l 640 596 q 669 566 669 596 q 640 536 669 536 l 544 536 q 578 411 578 490 q 516 266 578 324 q 329 200 448 200 q 240 213 289 200 q 189 134 189 172 q 230 100 189 108 q 434 90 277 91 q 658 -66 658 88 q 570 -215 658 -143 q 312 -300 466 -300 q 140 -269 220 -300 q 39 -168 39 -231 q 130 -26 39 -122 l 165 9 q 97 79 97 38 q 135 160 97 117 q 207 226 151 177 q 89 413 89 279 q 145 562 89 496 q 340 640 216 640 q 490 596 430 640 m 322 607 q 250 577 280 607 q 207 444 207 534 q 234 306 207 363 q 343 233 270 233 q 460 397 460 233 q 430 533 460 476 q 322 607 393 607 m 198 0 q 139 -119 139 -76 q 203 -190 139 -162 q 366 -218 268 -218 q 552 -173 485 -218 q 608 -83 608 -136 q 434 -15 608 -15 q 198 0 261 -15 "},"e":{"x_min":47,"x_max":572,"ha":617,"o":"m 572 386 l 141 386 q 196 187 141 270 q 364 92 259 92 q 551 240 498 92 l 572 226 q 488 55 552 123 q 317 -19 417 -19 q 124 70 202 -19 q 47 300 47 159 q 116 537 47 444 q 334 640 194 640 q 506 569 441 640 q 572 386 572 498 m 141 428 l 430 428 q 396 542 430 497 q 287 591 357 591 q 187 541 228 591 q 141 428 145 492 "},"J":{"x_min":61,"x_max":399,"ha":458,"o":"m 61 241 l 61 1076 l 117 1090 l 117 763 l 399 844 l 399 -19 l 343 -38 l 343 330 l 61 241 m 117 418 l 343 481 l 343 669 l 117 605 l 117 418 "},"|":{"x_min":3,"x_max":28,"ha":0,"o":"m 28 -156 l 3 -156 l 3 1197 l 28 1197 l 28 -156 "},"^":{"x_min":-4,"x_max":224,"ha":222,"o":"m 224 1172 l -4 1172 l -4 1200 l 224 1200 l 224 1172 m 224 844 l -4 844 l -4 872 l 224 872 l 224 844 m 224 507 l -4 507 l -4 535 l 224 535 l 224 507 m 224 168 l -4 168 l -4 196 l 224 196 l 224 168 m 224 -158 l -4 -158 l -4 -130 l 224 -130 l 224 -158 "},"q":{"x_min":33,"x_max":484.390625,"ha":496,"o":"m 126 537 l 126 576 q 198 588 186 577 q 210 649 210 599 l 210 1037 q 205 1100 210 1084 q 183 1116 201 1116 q 127 1100 170 1116 l 110 1133 l 280 1217 l 311 1217 l 311 674 q 320 599 311 614 q 391 576 334 576 l 391 537 l 126 537 m 431 -276 l 33 -276 l 33 -244 q 278 23 218 -60 q 335 179 335 104 q 303 270 335 233 q 222 308 271 308 q 88 198 120 308 l 51 198 q 246 402 80 402 q 382 350 323 402 q 441 221 441 299 q 296 -48 441 105 l 171 -182 l 345 -182 q 444 -130 419 -182 l 484 -131 l 431 -276 "},"b":{"x_min":-3,"x_max":648,"ha":694,"o":"m 216 964 l 216 514 l 216 514 q 411 640 298 640 q 569 566 501 640 q 648 337 648 481 q 531 61 648 162 q 330 -19 438 -19 q 103 60 213 -19 l 103 780 q 54 875 103 875 q 6 863 34 875 l -3 887 l 185 964 l 216 964 m 216 470 l 216 98 q 361 30 281 30 q 477 98 429 30 q 530 298 530 173 q 484 469 530 399 q 354 543 434 543 q 216 470 282 543 "},"D":{"x_min":-315,"x_max":1493.34375,"ha":1292,"o":"m 831 583 l 428 583 q 405 485 428 574 q 257 28 330 184 q -8 -282 154 -185 q -138 -317 -66 -317 q -292 -250 -255 -317 q -315 -171 -315 -211 q -273 -73 -315 -112 q -185 -43 -231 -34 q -96 -129 -96 -58 q -105 -172 -96 -148 q -174 -234 -121 -222 q -192 -251 -192 -238 q -176 -272 -192 -263 q -137 -279 -160 -281 q -32 -184 -94 -275 q 97 122 39 -77 q 179 440 137 281 q 206 583 206 535 l 69 583 l 69 625 l 222 625 q 247 722 219 645 q 351 904 286 827 q 571 1043 441 1010 q 662 1056 618 1056 q 811 1009 753 1056 q 869 886 869 962 q 839 799 869 827 q 772 770 810 770 q 714 794 735 770 q 693 848 693 818 q 725 923 693 891 q 775 938 735 933 q 812 955 810 944 q 735 1001 823 1001 q 641 983 680 1001 q 441 625 468 906 l 847 625 q 872 722 844 645 q 975 904 910 827 q 1194 1043 1065 1010 q 1287 1056 1243 1056 q 1435 1009 1378 1056 q 1493 886 1493 962 q 1461 797 1493 827 q 1397 770 1435 770 q 1337 795 1358 770 q 1316 850 1316 819 q 1346 923 1316 891 q 1397 940 1358 934 q 1435 955 1432 944 q 1358 1000 1446 1000 q 1268 983 1307 1000 q 1066 625 1094 905 l 1264 625 l 1264 583 l 1053 583 q 1030 485 1053 576 q 882 28 957 185 q 616 -282 779 -185 q 486 -317 558 -317 q 332 -250 369 -317 q 310 -172 310 -211 q 352 -73 310 -112 q 440 -43 394 -34 q 523 -125 523 -56 q 515 -172 523 -145 q 448 -234 503 -222 q 432 -251 432 -238 q 448 -272 432 -262 q 487 -279 464 -281 q 592 -184 530 -275 q 724 122 665 -77 q 805 440 764 281 q 831 583 831 531 "},"z":{"x_min":14,"x_max":989,"ha":1003,"o":"m 637 308 l 282 308 l 226 179 q 195 86 195 108 q 230 38 195 52 q 302 26 251 30 l 302 0 l 14 0 l 14 26 q 95 61 66 31 q 157 166 125 91 l 487 940 l 512 940 l 825 191 q 882 78 861 105 q 989 26 920 28 l 989 0 l 626 0 l 626 26 q 720 88 720 30 q 687 193 720 117 l 637 308 m 619 357 l 462 729 l 302 357 l 619 357 "},"w":{"x_min":11,"x_max":992,"ha":1003,"o":"m 716 159 l 841 486 q 861 557 861 538 q 796 595 861 595 l 796 621 l 992 621 l 992 595 q 898 500 933 590 l 698 -19 l 669 -19 l 515 377 l 333 -19 l 308 -19 l 115 485 q 80 558 92 542 q 11 595 58 586 l 11 621 l 270 621 l 270 595 q 212 552 212 595 q 230 488 212 536 l 358 145 l 490 435 l 462 510 q 427 572 445 557 q 356 595 405 595 l 356 621 l 652 621 l 652 595 q 570 543 570 595 q 581 499 570 527 l 716 159 "},"$":{"x_min":7.953125,"x_max":1022,"ha":0,"o":"m 8 10 q 292 221 214 151 q 498 483 409 326 q 598 827 588 641 q 543 1034 603 936 q 461 1125 517 1091 q 331 1154 400 1161 q 214 1119 275 1148 q 149 1079 167 1097 q 103 1015 119 1048 q 102 1005 102 1011 q 111 969 102 988 q 130 950 120 950 q 141 961 137 950 q 200 980 146 973 q 314 940 271 988 q 348 851 348 900 q 303 758 348 801 q 192 715 259 715 q 63 761 117 715 q 8 879 9 808 q 51 1024 6 954 q 169 1137 95 1094 q 273 1177 206 1158 q 382 1197 341 1197 q 656 1106 549 1197 q 794 838 781 1001 q 721 544 803 708 q 528 296 642 389 q 16 -24 338 142 l 8 10 m 944 1065 q 1000 1042 978 1065 q 1022 988 1022 1019 q 1000 931 1022 955 q 944 907 978 907 q 884 931 906 907 q 862 988 862 955 q 884 1042 862 1019 q 944 1065 906 1065 m 944 810 q 999 786 977 810 q 1022 732 1022 762 q 1000 676 1022 700 q 944 653 978 653 q 884 676 906 653 q 862 732 862 700 q 884 786 862 762 q 944 810 907 810 "},"\\":{"x_min":-149,"x_max":1,"ha":0,"o":"m -124 -156 l -149 -156 l -149 1197 l -124 1197 l -124 -156 m 1 -156 l -65 -156 l -65 1197 l 1 1197 l 1 -156 "},"~":{"x_min":5,"x_max":527.21875,"ha":583,"o":"m 102 666 q 56 797 56 723 q 116 943 56 883 q 261 1003 176 1003 q 389 956 335 1003 l 471 1038 l 527 1038 l 417 929 q 468 797 468 876 q 408 652 468 712 q 262 592 348 592 q 130 638 188 592 l 60 569 l 5 569 l 102 666 m 343 909 q 261 936 309 936 q 161 894 203 936 q 120 794 120 852 q 146 712 120 749 l 343 909 m 174 683 q 262 653 212 653 q 362 694 320 653 q 404 794 404 736 q 372 881 404 843 l 174 683 "},"-":{"x_min":56,"x_max":407,"ha":463,"o":"m 56 365 l 407 365 l 407 258 l 56 258 l 56 365 "},"Q":{"x_min":56,"x_max":510.15625,"ha":597,"o":"m 510 183 q 449 54 510 115 q 317 -20 390 -1 q 210 -36 258 -36 q 71 29 110 -36 q 56 87 56 55 q 100 197 56 144 q 218 276 144 250 q 325 294 272 294 q 442 268 392 294 l 442 1067 l 510 1067 l 510 183 "},"M":{"x_min":32,"x_max":436.28125,"ha":0,"o":"m 433 1148 l 220 573 q 204 534 212 552 q 165 518 190 518 q 130 531 144 518 q 126 563 122 554 l 365 1103 l 357 1110 l 108 1110 l 93 1098 l 61 1040 q 32 1045 40 1022 l 58 1151 q 83 1175 63 1175 l 420 1175 q 436 1162 437 1175 q 433 1148 436 1156 "},"C":{"x_min":7,"x_max":440.84375,"ha":0,"o":"m 262 878 q 390 823 341 868 q 440 698 445 773 q 362 562 433 611 q 209 518 300 518 q 61 555 126 518 q 7 647 7 586 q 11 674 7 661 q 43 695 22 695 q 75 687 54 695 q 169 558 80 575 l 250 559 q 330 615 301 573 q 359 708 359 656 q 340 784 359 748 q 157 854 301 856 q 158 890 140 875 q 243 904 162 893 q 310 953 284 916 q 336 1031 336 990 q 304 1111 336 1077 q 218 1144 272 1144 q 137 1115 169 1144 q 126 1040 111 1091 q 87 1008 126 1008 q 58 1016 69 1008 q 40 1054 40 1032 q 105 1148 40 1100 q 222 1181 161 1181 q 354 1143 298 1181 q 418 1028 419 1100 q 369 925 416 966 q 262 878 326 889 "},"[":{"x_min":0,"x_max":770.828125,"ha":236,"o":"m 770 -224 l 0 -224 l 0 1153 l 770 1153 l 770 1083 l 69 1083 l 69 -150 l 770 -150 l 770 -224 "},"L":{"x_min":40,"x_max":371,"ha":479,"o":"m 371 611 q 309 472 371 541 q 173 352 279 438 q 40 222 80 276 l 40 1217 l 93 1217 l 93 679 q 238 734 154 734 q 330 704 295 734 q 371 611 371 672 m 296 600 q 222 676 296 676 q 93 613 162 676 l 93 347 q 205 452 148 391 q 296 600 296 550 "},"!":{"x_min":625,"x_max":1527.78125,"ha":1389,"o":"m 625 556 l 694 556 l 694 166 l 1527 166 l 1527 97 l 625 97 l 625 556 "}," ":{"x_min":0,"x_max":0,"ha":347},"{":{"x_min":-55,"x_max":806.125,"ha":0,"o":"m 806 1083 l -55 1083 l -55 1153 l 806 1153 l 806 1083 m 806 -224 l -55 -224 l -55 -150 l 806 -150 l 806 -224 "},"X":{"x_min":0,"x_max":450.921875,"ha":0,"o":"m 387 616 q 434 652 416 652 q 450 644 443 652 q 447 620 452 633 l 406 528 l 11 528 l 0 550 q 41 630 9 579 q 276 886 122 736 q 345 1031 345 954 q 318 1101 345 1073 q 223 1138 280 1138 q 106 1073 141 1138 q 98 1040 98 1056 q 120 977 98 1013 q 111 954 120 966 q 81 943 97 943 q 25 990 37 943 q 23 1011 23 1000 q 95 1135 23 1084 q 240 1181 161 1181 q 370 1139 312 1181 q 434 1023 434 1093 q 337 846 434 925 q 209 734 250 773 q 98 607 141 671 l 97 596 l 348 596 q 387 616 362 600 "},"P":{"x_min":-270,"x_max":642.5,"ha":810,"o":"m 157 129 l 6 -298 l 101 -298 l 101 -347 l -270 -347 l -270 -298 l -171 -298 l 145 517 q 161 563 161 548 q 156 579 161 573 q 113 601 136 601 q -22 454 53 601 q -85 306 -54 390 l -113 312 q -45 475 -82 405 q 138 638 43 638 q 181 629 159 638 q 210 590 199 622 q 217 555 217 568 q 303 630 238 593 q 449 674 378 674 q 507 665 480 674 q 642 434 642 622 q 609 257 642 341 q 475 74 570 157 q 303 -8 380 -8 q 157 129 210 -8 m 448 602 q 335 525 398 602 q 248 384 285 463 q 214 208 214 313 q 264 108 214 108 q 371 173 309 108 q 460 306 431 234 q 506 511 506 419 q 448 602 506 602 "},"%":{"x_min":0,"x_max":833.328125,"ha":833,"o":"m 833 1172 l 0 1172 l 0 1200 l 833 1200 l 833 1172 m 833 844 l 0 844 l 0 872 l 833 872 l 833 844 m 833 507 l 0 507 l 0 535 l 833 535 l 833 507 m 833 168 l 0 168 l 0 196 l 833 196 l 833 168 m 833 -158 l 0 -158 l 0 -130 l 833 -130 l 833 -158 "},"#":{"x_min":-69,"x_max":1459,"ha":1389,"o":"m 1459 97 l -69 97 l -69 166 l 1390 166 l 1390 556 l 1459 556 l 1459 97 "},"_":{"x_min":-68,"x_max":429.234375,"ha":292,"o":"m -68 167 l 429 167 l 429 97 l -68 97 l -68 167 "},"+":{"x_min":24,"x_max":526.78125,"ha":569,"o":"m 317 171 l 234 171 l 234 375 l 24 375 l 24 458 l 234 458 l 234 668 l 317 668 l 317 458 l 526 458 l 526 375 l 317 375 l 317 171 "},")":{"x_min":31,"x_max":406,"ha":463,"o":"m 31 -175 l 31 -146 q 275 456 275 -12 q 31 1059 275 926 l 31 1089 q 308 827 211 993 q 406 457 406 662 q 308 86 406 251 q 31 -175 211 -79 "},"'":{"x_min":57,"x_max":193,"ha":250,"o":"m 141 544 l 108 544 q 70 756 100 598 q 57 864 57 835 q 125 940 57 940 q 193 864 193 940 q 179 756 193 835 q 141 544 149 598 "},"}":{"x_min":-818,"x_max":43.125,"ha":0,"o":"m 43 1083 l -818 1083 l -818 1153 l 43 1153 l 43 1083 m 43 -224 l -818 -224 l -818 -150 l 43 -150 l 43 -224 "},"a":{"x_min":47,"x_max":610.890625,"ha":617,"o":"m 504 472 l 504 173 q 508 97 504 115 q 538 67 515 67 q 610 120 556 67 l 610 82 q 466 -19 533 -19 q 391 81 391 -19 q 302 14 347 48 q 195 -19 249 -19 q 86 26 126 -19 q 47 143 47 72 q 110 269 47 213 q 250 348 157 309 q 391 403 321 376 q 374 539 391 500 q 277 598 349 598 q 213 578 239 598 q 184 516 184 555 q 127 418 184 418 q 71 484 71 418 q 115 576 71 531 q 299 640 177 640 q 504 472 504 640 m 391 126 l 391 363 q 240 293 278 318 q 160 172 160 241 q 187 93 160 128 q 258 59 215 59 q 391 126 309 59 "},"T":{"x_min":-125,"x_max":715.28125,"ha":778,"o":"m 715 183 q 652 55 715 115 q 520 -20 595 -1 q 415 -36 463 -36 q 276 29 315 -36 q 259 88 259 55 q 304 197 259 144 q 422 276 348 251 q 529 295 476 295 q 647 268 597 295 l 647 713 l -125 713 l -125 843 l 647 843 l 647 937 l -125 937 l -125 1067 l 715 1067 l 715 183 "},"=":{"x_min":97,"x_max":756.734375,"ha":783,"o":"m 97 599 l 756 599 l 756 543 l 97 543 l 97 599 m 97 380 l 756 380 l 756 324 l 97 324 l 97 380 "},"N":{"x_min":5,"x_max":442.5,"ha":0,"o":"m 432 670 q 352 557 411 599 q 220 515 292 515 q 109 546 160 515 q 5 770 5 610 q 17 884 5 823 q 130 1080 41 1001 q 339 1177 218 1159 q 373 1182 352 1183 q 389 1169 385 1182 q 384 1148 392 1158 l 277 1122 q 82 844 123 1084 q 249 919 131 919 q 342 902 299 919 q 442 735 442 845 q 432 670 442 703 m 360 693 q 334 825 363 775 q 224 872 286 875 q 92 800 129 868 q 82 733 82 768 q 186 562 82 594 q 224 556 206 556 q 315 596 277 556 q 360 693 353 636 "},"2":{"x_min":10,"x_max":633.46875,"ha":686,"o":"m 545 94 q 611 131 586 131 q 632 123 623 131 q 626 97 636 113 l 572 0 l 23 0 l 10 23 q 65 108 21 54 q 392 381 196 238 q 488 536 488 452 q 449 611 488 581 q 319 650 397 650 q 156 581 207 650 q 145 545 145 563 q 175 480 145 515 q 162 454 175 466 q 122 443 144 443 q 43 493 58 443 q 42 513 42 504 q 141 647 42 594 q 340 696 230 696 q 522 651 440 696 q 610 530 610 602 q 571 430 610 482 q 475 340 533 377 q 147 83 241 190 l 145 71 l 491 71 q 545 94 511 76 "},"j":{"x_min":-108,"x_max":268,"ha":386,"o":"m 258 640 l 258 9 q 184 -230 258 -151 q 10 -300 120 -300 q -63 -284 -28 -300 q -108 -231 -108 -266 q -92 -190 -108 -208 q -52 -173 -76 -173 q 20 -209 -20 -173 q 83 -246 61 -246 q 145 -129 145 -246 l 145 456 q 96 551 145 551 q 48 540 76 551 l 39 563 l 227 640 l 258 640 m 132 896 q 152 943 132 923 q 200 964 172 964 q 247 943 227 964 q 268 896 268 923 q 247 848 268 868 q 200 828 227 828 q 152 848 172 828 q 132 896 132 868 "},"Z":{"x_min":77.828125,"x_max":391.890625,"ha":0,"o":"m 382 568 q 391 548 391 561 q 382 528 391 534 l 118 528 q 105 548 105 536 q 118 568 105 561 l 213 568 l 213 1036 q 185 1080 213 1069 l 86 1080 q 78 1098 78 1084 q 86 1116 76 1111 l 179 1134 q 259 1176 211 1140 q 275 1179 269 1179 q 289 1169 287 1179 l 289 568 l 382 568 "},"u":{"x_min":4,"x_max":694.28125,"ha":694,"o":"m 589 621 l 589 163 q 637 69 589 69 q 684 80 656 69 l 694 57 l 506 -19 l 476 -19 l 476 112 q 381 22 414 46 q 265 -19 326 -19 q 148 37 190 -19 q 107 184 107 94 l 107 486 q 89 572 107 552 q 4 595 72 593 l 4 621 l 220 621 l 220 189 q 323 64 220 64 q 476 152 390 64 l 476 486 q 458 572 476 552 q 373 595 441 593 l 373 621 l 589 621 "},"1":{"x_min":8,"x_max":358,"ha":392,"o":"m 344 42 q 358 19 358 32 q 344 0 358 7 l 50 0 q 34 21 34 7 q 50 42 34 35 l 151 42 l 151 543 q 112 590 151 577 l 19 590 q 8 609 8 594 q 19 627 8 623 l 105 648 q 218 693 166 664 q 237 696 229 696 q 257 684 255 696 l 257 42 l 344 42 "},"k":{"x_min":7,"x_max":702.84375,"ha":694,"o":"m 425 93 l 226 346 l 404 507 q 448 565 448 547 q 398 596 448 596 l 398 622 l 670 622 l 670 596 q 566 577 605 596 q 483 515 534 562 l 337 381 l 526 143 q 627 41 591 62 q 702 26 652 26 l 702 0 l 401 0 l 401 26 q 444 52 444 26 q 425 93 444 69 m 226 964 l 226 118 q 249 42 226 62 q 320 26 268 27 l 320 0 l 16 0 l 16 26 q 91 44 69 27 q 113 118 113 62 l 113 780 q 64 875 113 875 q 16 863 44 875 l 7 887 l 195 964 l 226 964 "},"<":{"x_min":0,"x_max":447,"ha":0,"o":"m 290 890 q 447 698 441 823 q 365 563 437 615 q 209 518 298 518 q 41 580 105 518 q 5 638 12 615 q 0 676 0 658 q 151 855 0 766 q 22 1005 28 926 q 80 1134 22 1083 q 222 1186 138 1186 q 341 1158 288 1186 q 416 1067 402 1126 q 419 1044 419 1056 q 387 963 419 1006 q 290 890 344 928 m 238 903 q 352 1050 365 958 q 297 1126 341 1100 q 199 1148 254 1152 q 119 1108 151 1138 q 86 1025 81 1072 q 154 936 99 957 l 238 903 m 107 586 q 220 551 150 551 q 325 579 280 551 q 375 662 370 608 q 315 779 380 730 q 186 833 265 816 q 101 767 137 813 q 65 672 65 720 q 107 586 65 621 "},"t":{"x_min":11,"x_max":386,"ha":386,"o":"m 221 620 l 366 620 l 366 571 l 221 571 l 221 189 q 229 108 221 131 q 286 70 243 70 q 329 86 308 70 q 358 125 351 103 l 386 125 q 326 33 365 69 q 226 -8 280 -8 q 151 21 181 -8 q 108 140 108 61 l 108 571 l 11 571 l 11 598 q 200 825 129 647 l 221 825 l 221 620 "},"W":{"x_min":59,"x_max":547,"ha":639,"o":"m 547 195 q 480 57 547 123 q 339 -22 419 -3 q 225 -38 277 -38 q 77 30 118 -38 q 59 94 60 59 q 107 211 59 154 q 234 296 155 268 q 349 317 292 317 q 475 287 422 317 l 475 1142 l 547 1142 l 547 195 m 110 45 q 168 18 128 18 q 319 65 213 18 q 471 198 471 133 q 457 239 471 218 q 394 260 444 260 q 262 232 333 260 q 147 164 192 205 q 99 80 99 120 q 110 45 99 62 "},"v":{"x_min":12,"x_max":681,"ha":694,"o":"m 388 148 l 527 488 q 549 558 549 542 q 478 595 549 595 l 478 621 l 681 621 l 681 595 q 618 565 643 595 q 582 497 601 546 l 368 -19 l 340 -19 l 127 489 q 86 561 105 543 q 12 595 61 588 l 12 621 l 304 621 l 304 595 q 230 545 230 595 q 250 475 230 525 l 388 148 "},">":{"x_min":1,"x_max":434.46875,"ha":0,"o":"m 431 979 l 434 881 q 386 703 437 786 q 249 569 335 620 q 107 520 174 535 q 92 519 99 519 q 67 535 67 519 q 73 551 67 542 q 160 576 101 557 q 349 846 327 638 q 182 781 277 781 q 20 872 73 781 q 1 966 1 916 q 43 1101 1 1040 q 159 1178 85 1161 q 242 1181 196 1186 q 371 1112 319 1171 q 431 979 419 1057 m 209 821 q 310 856 264 821 q 356 943 356 891 q 342 1022 356 972 q 295 1104 328 1072 q 210 1141 257 1141 q 112 1091 148 1143 q 78 980 78 1045 q 113 870 78 916 q 209 821 151 821 "},"s":{"x_min":72,"x_max":495,"ha":540,"o":"m 449 640 l 449 427 l 424 427 q 258 598 385 598 q 187 577 216 598 q 153 513 153 553 q 241 403 153 452 q 406 317 323 360 q 495 166 495 258 q 430 32 495 84 q 282 -19 365 -19 q 156 1 229 -19 q 122 8 131 8 q 97 -9 101 8 l 72 -9 l 72 212 l 97 212 q 159 79 106 136 q 287 23 212 23 q 363 47 332 23 q 395 117 395 72 q 311 232 395 183 q 155 315 234 273 q 72 454 72 371 q 126 589 72 538 q 264 640 180 640 q 343 624 289 640 q 394 613 382 613 q 424 640 414 613 l 449 640 "},"B":{"x_min":-36,"x_max":427.890625,"ha":0,"o":"m 414 7 q 427 -20 427 -2 q 414 -44 427 -37 l 324 -44 l 324 -196 l 373 -196 q 383 -216 383 -202 q 373 -236 383 -230 l 209 -236 q 197 -216 197 -229 q 209 -196 197 -202 l 260 -196 l 260 -44 l -16 -44 q -36 -17 -36 -44 q -29 7 -36 -5 l 228 388 q 273 411 243 411 q 308 401 293 411 q 324 380 324 392 l 324 7 l 414 7 m 260 7 l 260 322 l 45 7 l 260 7 "},"?":{"x_min":3.84375,"x_max":447.046875,"ha":0,"o":"m 224 1183 q 373 1112 312 1185 q 440 955 426 1048 q 447 852 447 905 q 406 642 447 727 q 255 520 358 538 q 222 518 238 518 q 42 648 95 518 q 4 803 5 720 q 187 1178 -1 1134 q 224 1183 204 1181 m 310 590 q 360 725 352 643 q 367 851 367 797 q 324 1080 367 988 q 226 1145 294 1145 q 150 1111 181 1145 q 108 1032 119 1077 q 84 841 84 933 q 120 636 84 729 q 227 549 154 549 q 272 560 249 549 q 310 590 299 579 "},"H":{"x_min":78,"x_max":478,"ha":521,"o":"m 478 391 q 403 231 478 310 q 239 95 366 194 q 78 -56 126 6 l 78 1088 l 142 1088 l 142 469 q 316 533 215 533 q 429 498 386 533 q 478 391 478 460 m 386 379 q 298 466 386 466 q 142 394 225 466 l 142 87 q 276 209 214 144 q 386 379 386 322 "},"c":{"x_min":47,"x_max":570.609375,"ha":617,"o":"m 551 245 l 570 236 q 485 60 551 132 q 312 -19 412 -19 q 121 74 195 -19 q 47 312 47 168 q 137 551 47 458 q 344 640 223 640 q 478 601 415 640 q 552 490 552 556 q 491 433 552 433 q 413 513 420 433 q 321 593 406 593 q 193 519 239 593 q 155 369 155 458 q 203 184 155 265 q 357 87 260 87 q 551 245 491 87 "},"&":{"x_min":23,"x_max":623,"ha":0,"o":"m 195 608 l 195 423 q 217 329 195 377 q 292 240 243 269 l 292 793 q 222 719 249 769 q 195 608 195 669 m 336 812 l 336 225 q 384 216 359 216 q 510 279 453 216 q 585 440 568 343 l 623 440 q 538 247 614 320 q 336 174 462 174 l 336 -57 l 292 -57 l 292 180 q 90 306 165 202 q 23 532 23 402 q 99 740 23 647 q 292 858 176 833 l 292 1096 l 336 1096 l 336 866 q 528 815 447 866 q 618 665 618 758 q 588 581 618 619 q 500 541 553 541 q 417 568 452 541 q 382 638 382 594 q 474 748 382 713 q 514 762 492 748 q 472 805 518 786 q 409 822 439 819 q 336 812 373 826 "},"I":{"x_min":31,"x_max":171,"ha":207,"o":"m 31 159 q 51 208 31 188 q 100 229 71 229 q 150 208 129 229 q 171 159 171 188 q 150 108 171 129 q 100 88 130 88 q 51 109 71 88 q 31 159 31 130 "},"G":{"x_min":51,"x_max":421.828125,"ha":500,"o":"m 421 286 l 336 248 l 336 -8 l 285 -27 l 285 231 l 190 195 l 190 -67 l 139 -88 l 139 180 l 51 150 l 51 322 l 139 355 l 139 598 l 51 566 l 51 740 l 139 772 l 139 1047 l 190 1065 l 190 790 l 285 823 l 285 1105 l 336 1122 l 336 842 l 421 872 l 421 702 l 336 667 l 336 425 l 421 455 l 421 286 m 289 406 l 289 651 l 185 615 l 185 370 l 289 406 "},"(":{"x_min":57,"x_max":432,"ha":463,"o":"m 432 1089 l 432 1059 q 188 456 188 926 q 432 -146 188 -12 l 432 -175 q 154 86 251 -79 q 57 457 57 251 q 154 827 57 662 q 432 1089 251 993 "},"`":{"x_min":0,"x_max":0,"ha":222},"U":{"x_min":-126,"x_max":233.71875,"ha":0,"o":"m 233 938 l -126 938 l -126 1067 l 233 1067 l 233 938 "},"F":{"x_min":-315,"x_max":869.734375,"ha":671,"o":"m 626 622 l 626 580 l 428 580 q 405 485 428 574 q 255 28 330 183 q -8 -281 154 -184 q -140 -318 -66 -318 q -292 -251 -256 -318 q -315 -172 -315 -212 q -272 -74 -315 -113 q -184 -43 -230 -34 q -98 -130 -98 -58 q -105 -175 -98 -151 q -174 -236 -124 -223 q -192 -252 -192 -240 q -176 -274 -192 -265 q -137 -280 -160 -283 q -32 -186 -95 -276 q 97 119 39 -80 q 179 438 139 278 q 206 580 206 535 l 69 580 l 69 622 l 222 622 q 247 720 221 644 q 351 902 286 826 q 571 1041 441 1008 q 662 1054 618 1054 q 811 1007 753 1054 q 869 886 869 961 q 837 794 869 826 q 772 768 810 768 q 712 791 733 768 q 691 847 691 815 q 725 922 691 891 q 772 937 735 933 q 812 954 810 941 q 737 998 823 998 q 641 980 683 998 q 441 622 469 902 l 626 622 "},"r":{"x_min":7,"x_max":472.28125,"ha":463,"o":"m 226 640 l 226 507 l 226 507 q 384 640 308 640 q 444 618 417 640 q 472 563 472 596 q 454 519 472 538 q 412 501 437 501 q 358 524 389 501 q 314 547 328 547 q 226 443 275 547 l 226 182 q 239 62 226 86 q 340 26 260 26 l 340 0 l 16 0 l 16 26 q 91 44 69 27 q 113 118 113 62 l 113 457 q 64 551 113 551 q 16 540 44 551 l 7 563 l 195 640 l 226 640 "},":":{"x_min":25,"x_max":901,"ha":0,"o":"m 665 -72 q 771 29 731 -36 q 805 169 810 95 q 732 334 798 269 q 572 395 666 400 l 665 -72 m 665 1459 q 642 1522 663 1495 q 587 1550 622 1550 q 459 1413 506 1534 q 421 1215 422 1318 q 443 1034 419 1151 q 599 1222 540 1118 q 665 1459 669 1343 m 538 562 q 591 569 584 569 q 816 463 727 569 q 901 220 901 363 q 674 -113 899 -7 l 733 -406 q 736 -470 736 -420 q 660 -658 736 -586 q 465 -731 585 -731 q 306 -675 377 -731 q 226 -530 235 -619 q 257 -409 219 -465 q 356 -347 296 -354 q 457 -382 413 -340 q 504 -483 501 -425 q 447 -595 506 -556 q 358 -620 399 -629 q 409 -672 362 -652 q 490 -683 451 -687 q 689 -469 683 -662 q 676 -362 690 -429 l 629 -132 q 494 -156 558 -156 q 163 0 302 -156 q 25 366 25 156 q 152 715 25 537 q 404 995 208 791 q 364 1315 364 1148 q 411 1568 364 1437 q 561 1763 468 1729 q 666 1619 605 1779 q 725 1337 727 1458 q 491 804 719 1036 l 538 562 m 528 391 q 419 317 462 373 q 376 193 376 261 q 491 41 377 93 q 500 26 500 33 q 480 11 500 8 q 347 111 398 37 q 297 276 295 184 q 356 440 298 361 q 491 549 413 520 l 448 769 q 233 543 298 633 q 130 248 130 397 q 250 -14 130 85 q 525 -103 364 -109 q 621 -87 574 -100 l 528 391 "},"x":{"x_min":27,"x_max":852,"ha":926,"o":"m 852 255 q 790 97 852 162 q 497 0 700 0 l 27 0 l 27 26 q 141 57 118 26 q 158 176 158 81 l 158 742 q 141 861 158 837 q 27 893 118 893 l 27 919 l 452 919 q 728 844 633 919 q 809 671 809 778 q 763 544 809 598 q 646 470 717 491 l 646 467 q 789 401 731 456 q 852 255 852 340 m 667 677 q 583 828 667 775 q 408 873 513 873 q 289 857 343 873 l 289 505 q 441 496 337 496 q 629 566 571 496 q 667 677 667 613 m 696 239 q 601 405 696 351 q 405 450 525 450 q 289 443 326 450 l 289 67 q 445 49 360 49 q 614 92 546 49 q 696 239 696 143 "},"*":{"x_min":-397,"x_max":1.609375,"ha":0,"o":"m -206 -156 l -217 -156 l -217 1197 l -206 1197 l -206 -156 m 1 -156 l -99 -156 l -99 1197 l 1 1197 l 1 -156 m -291 688 q -306 651 -291 666 q -344 636 -322 636 q -381 651 -366 636 q -397 688 -397 666 q -381 725 -397 709 q -344 741 -366 741 q -306 725 -322 741 q -291 688 -291 709 m -291 351 q -306 314 -291 330 q -344 298 -322 298 q -381 314 -366 298 q -397 351 -397 330 q -381 388 -397 373 q -344 404 -366 404 q -306 388 -322 404 q -291 351 -291 373 "},"V":{"x_min":-36,"x_max":427.890625,"ha":0,"o":"m 414 770 q 427 742 427 760 q 414 719 427 725 l 324 719 l 324 568 l 373 568 q 383 547 383 562 q 373 528 383 533 l 209 528 q 197 547 197 534 q 209 568 197 561 l 260 568 l 260 719 l -16 719 q -36 745 -36 719 q -29 770 -36 757 l 228 1152 q 273 1175 243 1175 q 308 1165 293 1175 q 324 1144 324 1156 l 324 770 l 414 770 m 260 770 l 260 1086 l 45 770 l 260 770 "}," ":{"x_min":0,"x_max":0,"ha":347},"h":{"x_min":7,"x_max":688.953125,"ha":694,"o":"m 594 430 l 594 118 q 617 42 594 62 q 688 26 636 27 l 688 0 l 384 0 l 384 26 q 459 44 437 27 q 481 118 481 62 l 481 405 q 382 557 481 557 q 226 468 311 557 l 226 118 q 249 42 226 62 q 320 26 268 27 l 320 0 l 16 0 l 16 26 q 91 44 69 27 q 113 118 113 62 l 113 780 q 64 875 113 875 q 16 863 44 875 l 7 887 l 195 964 l 226 964 l 226 510 q 331 606 289 579 q 437 640 381 640 q 557 574 516 640 q 594 430 594 518 "},"0":{"x_min":8.78125,"x_max":551,"ha":583,"o":"m 278 694 q 459 619 385 696 q 541 452 524 550 q 551 342 551 399 q 500 120 551 209 q 316 -10 441 7 q 275 -13 295 -13 q 143 25 202 -13 q 57 125 85 63 q 25 202 40 150 q 9 289 10 255 q 211 684 2 619 q 278 694 239 692 m 382 62 q 445 206 435 114 q 454 341 454 284 q 401 584 454 488 q 280 655 362 655 q 185 617 227 655 q 135 534 149 582 q 106 335 106 432 q 151 112 106 213 q 283 19 193 19 q 336 30 310 19 q 382 62 369 49 "},".":{"x_min":98,"x_max":248,"ha":347,"o":"m 173 -19 q 120 3 142 -19 q 98 56 98 25 q 120 109 98 87 q 173 131 142 131 q 226 109 204 131 q 248 56 248 87 q 226 3 248 25 q 173 -19 204 -19 "},"@":{"x_min":97,"x_max":1874.78125,"ha":1389,"o":"m 97 166 l 791 166 l 1180 556 l 1567 166 l 1874 166 l 1874 97 l 1513 97 l 1180 429 l 847 97 l 97 97 l 97 166 "},"f":{"x_min":53,"x_max":603,"ha":463,"o":"m 287 571 l 287 182 q 300 62 287 87 q 401 26 321 26 l 401 0 l 55 0 l 55 26 q 158 62 137 26 q 174 182 174 87 l 174 571 l 53 571 l 53 620 l 174 620 l 174 677 q 242 882 174 801 q 435 964 311 964 q 541 933 489 964 q 603 848 603 898 q 584 810 603 827 q 547 793 566 793 q 471 854 512 793 q 379 915 429 915 q 298 852 318 915 q 287 733 287 815 l 287 620 l 446 620 l 446 571 l 287 571 "},";":{"x_min":94,"x_max":296,"ha":386,"o":"m 94 -231 l 94 -201 q 196 -136 152 -185 q 240 -27 240 -87 q 221 0 240 0 q 199 -9 217 0 q 163 -19 181 -19 q 112 1 131 -19 q 94 54 94 22 q 119 113 94 89 q 181 137 145 137 q 266 89 234 137 q 296 -7 296 47 q 233 -151 296 -90 q 94 -231 178 -207 m 193 490 q 140 512 162 490 q 118 565 118 534 q 140 618 118 596 q 193 640 162 640 q 246 618 224 640 q 268 565 268 596 q 246 512 268 534 q 193 490 224 490 "},"i":{"x_min":37,"x_max":350.890625,"ha":386,"o":"m 256 640 l 256 118 q 279 42 256 62 q 350 26 298 27 l 350 0 l 46 0 l 46 26 q 121 44 99 27 q 143 118 143 62 l 143 457 q 94 551 143 551 q 46 540 74 551 l 37 563 l 225 640 l 256 640 m 130 896 q 150 943 130 923 q 198 964 170 964 q 245 943 225 964 q 266 896 266 923 q 245 848 266 868 q 198 828 225 828 q 150 848 170 828 q 130 896 130 868 "},"6":{"x_min":10,"x_max":614,"ha":654,"o":"m 475 548 q 614 308 614 469 q 600 210 614 260 q 489 45 572 108 q 307 -17 405 -17 q 153 28 223 -17 q 10 353 10 121 q 26 523 10 434 q 185 812 60 695 q 472 951 305 924 q 518 958 480 955 q 540 931 540 955 q 533 909 540 919 l 385 870 q 117 465 173 815 q 344 575 183 575 q 475 548 415 575 m 259 51 q 312 43 286 43 q 446 114 392 43 q 501 279 501 186 q 463 436 501 368 q 311 506 399 510 q 129 400 182 500 q 117 301 117 353 q 150 148 117 214 q 259 51 189 73 "},"A":{"x_min":111,"x_max":506.828125,"ha":590,"o":"m 215 993 l 501 708 q 338 396 327 509 q 506 205 348 291 l 494 191 q 292 146 329 194 q 280 108 280 131 q 349 -49 280 45 q 116 213 116 113 q 136 259 116 240 q 224 286 161 286 q 380 259 291 286 l 111 524 q 201 616 163 572 q 299 791 292 720 q 188 993 306 868 l 215 993 "},"n":{"x_min":7,"x_max":688.953125,"ha":694,"o":"m 226 640 l 226 510 q 331 606 289 579 q 437 640 381 640 q 557 574 516 640 q 594 430 594 518 l 594 118 q 617 42 594 62 q 688 26 636 27 l 688 0 l 384 0 l 384 26 q 459 44 437 27 q 481 118 481 62 l 481 405 q 382 557 481 557 q 226 468 311 557 l 226 118 q 249 42 226 62 q 320 26 268 27 l 320 0 l 16 0 l 16 26 q 91 44 69 27 q 113 118 113 62 l 113 457 q 64 551 113 551 q 16 540 44 551 l 7 563 l 195 640 l 226 640 "},"O":{"x_min":-270,"x_max":1450.828125,"ha":1639,"o":"m 157 127 l 6 -298 l 101 -298 l 101 -347 l -270 -347 l -270 -298 l -172 -298 l 145 516 q 153 533 145 516 q 161 563 161 551 q 156 580 161 573 q 114 602 136 602 q -21 455 55 602 q -85 308 -54 391 l -113 308 q -45 472 -82 402 q 138 636 42 636 q 181 627 159 636 q 209 588 198 620 q 217 554 217 566 q 303 629 238 591 q 449 672 378 672 q 506 663 480 672 q 642 431 642 620 q 609 254 642 340 q 475 73 571 155 q 303 -8 380 -8 q 157 127 209 -8 m 448 604 q 335 525 398 604 q 248 383 285 463 q 214 206 214 312 q 264 106 214 106 q 371 173 309 106 q 460 308 431 236 q 506 512 506 420 q 448 604 506 604 m 966 127 l 816 -298 l 911 -298 l 911 -347 l 543 -347 l 543 -298 l 640 -298 l 956 516 q 964 533 956 516 q 971 561 971 549 q 964 580 971 573 q 923 602 945 602 q 829 526 881 602 q 756 384 792 470 q 727 308 723 308 l 698 308 q 766 472 728 402 q 948 636 853 636 q 989 628 970 636 q 1018 588 1009 620 q 1027 554 1023 570 q 1113 629 1049 591 q 1259 672 1188 672 q 1316 663 1289 672 q 1450 434 1450 620 q 1417 254 1450 341 q 1284 73 1378 155 q 1113 -8 1189 -8 q 1030 22 1063 -8 q 966 127 998 52 m 1260 604 q 1146 525 1210 604 q 1057 383 1098 465 q 1024 206 1024 315 q 1052 112 1024 127 q 1073 106 1061 106 q 1178 173 1116 106 q 1268 308 1238 236 q 1317 516 1317 422 q 1260 604 1317 604 "},"3":{"x_min":4,"x_max":604.8125,"ha":651,"o":"m 356 310 q 534 239 465 296 q 604 76 612 174 q 497 -103 594 -39 q 284 -160 409 -160 q 79 -111 169 -160 q 4 9 4 -69 q 8 45 4 27 q 51 72 24 72 q 95 61 66 72 q 227 -104 105 -82 l 339 -104 q 452 -30 410 -85 q 491 87 491 20 q 464 187 491 140 q 210 279 409 284 q 201 302 202 287 q 212 326 201 317 q 330 344 217 329 q 422 408 386 361 q 459 511 459 455 q 413 615 459 572 q 294 659 368 659 q 183 621 227 659 q 161 569 161 601 q 169 522 161 548 q 116 481 169 481 q 73 493 90 481 q 50 540 50 513 q 140 663 50 601 q 299 708 222 708 q 484 658 406 708 q 572 506 573 601 q 503 373 570 426 q 356 310 445 326 "},"]":{"x_min":-529,"x_max":241.84375,"ha":236,"o":"m 241 -224 l -529 -224 l -529 -150 l 172 -150 l 172 1083 l -529 1083 l -529 1153 l 241 1153 l 241 -224 "},"m":{"x_min":7,"x_max":1073.671875,"ha":1081,"o":"m 226 640 l 226 508 q 321 596 293 577 q 442 640 380 640 q 545 602 500 640 q 597 508 590 565 q 692 600 654 574 q 814 640 747 640 q 940 574 897 640 q 978 430 978 518 l 978 118 q 1001 42 978 62 q 1073 26 1020 27 l 1073 0 l 769 0 l 769 26 q 843 44 822 27 q 865 118 865 62 l 865 393 q 851 504 865 471 q 762 557 829 557 q 602 473 690 557 l 602 118 q 625 42 602 62 q 697 26 644 27 l 697 0 l 393 0 l 393 26 q 467 44 445 27 q 489 118 489 62 l 489 393 q 475 504 489 471 q 386 557 453 557 q 226 473 314 557 l 226 118 q 249 42 226 62 q 320 26 268 27 l 320 0 l 16 0 l 16 26 q 91 44 69 27 q 113 118 113 62 l 113 457 q 64 551 113 551 q 16 540 44 551 l 7 563 l 195 640 l 226 640 "},"9":{"x_min":0,"x_max":601,"ha":646,"o":"m 596 439 l 601 309 q 526 73 594 180 q 344 -98 459 -33 q 148 -161 236 -141 q 127 -164 137 -164 q 94 -141 94 -164 q 101 -122 94 -133 q 222 -88 115 -116 q 406 51 338 -45 q 483 263 470 141 q 254 181 383 181 q 27 299 101 181 q 0 421 0 357 q 59 596 0 518 q 220 697 119 675 q 334 703 276 709 q 513 612 441 690 q 596 439 580 541 m 245 235 q 288 230 266 230 q 429 275 364 230 q 494 388 494 320 q 473 495 494 424 q 407 602 455 558 q 291 651 356 650 q 155 586 206 652 q 108 438 108 524 q 142 312 108 366 q 245 235 180 252 "},"l":{"x_min":37,"x_max":350.890625,"ha":386,"o":"m 256 964 l 256 118 q 279 42 256 62 q 350 26 298 27 l 350 0 l 46 0 l 46 26 q 121 44 99 27 q 143 118 143 62 l 143 780 q 94 875 143 875 q 46 863 74 875 l 37 887 l 225 964 l 256 964 "},"8":{"x_min":5,"x_max":623,"ha":658,"o":"m 406 529 q 623 250 617 430 q 510 54 610 127 q 296 -14 420 -14 q 61 77 152 -14 q 32 118 41 104 q 11 162 17 141 q 5 218 5 190 q 73 370 5 298 q 213 479 117 418 q 34 697 46 583 q 115 887 34 811 q 311 963 196 963 q 477 922 404 963 q 581 789 560 875 q 585 754 585 771 q 542 637 585 698 q 406 529 481 586 m 334 549 q 493 762 509 626 q 416 875 477 836 q 281 906 356 913 q 170 847 216 894 q 124 726 118 794 q 218 597 139 630 l 334 549 m 153 85 q 311 33 211 33 q 452 73 393 33 q 523 195 517 117 q 441 367 531 297 q 261 445 371 423 q 146 351 195 416 q 95 210 95 281 q 153 85 95 138 "},"p":{"x_min":-4,"x_max":646,"ha":694,"o":"m 103 -177 l 103 457 q 54 551 103 551 q 7 543 34 551 l -2 565 l 185 640 l 216 640 l 216 497 l 216 497 q 411 640 299 640 q 590 540 524 640 q 646 334 646 452 q 575 93 646 193 q 360 -19 496 -19 q 216 36 270 -19 l 216 -177 q 236 -251 216 -235 q 322 -270 257 -268 l 322 -296 l -4 -296 l -4 -270 q 82 -251 61 -268 q 103 -177 103 -235 m 216 451 l 216 193 q 256 62 216 102 q 362 23 297 23 q 493 108 450 23 q 528 273 528 176 q 491 445 528 369 q 358 543 444 543 q 216 451 296 543 "},"4":{"x_min":1,"x_max":642.671875,"ha":678,"o":"m 621 168 q 642 131 642 155 q 621 100 642 109 l 498 100 l 498 -97 l 567 -97 q 579 -124 579 -105 q 567 -151 579 -144 l 339 -151 q 323 -124 323 -141 q 339 -97 323 -108 l 408 -97 l 408 100 l 27 100 q 1 133 1 100 q 9 166 1 150 l 366 666 q 428 697 387 697 q 476 684 455 697 q 498 655 498 672 l 498 168 l 621 168 m 408 168 l 408 577 l 114 168 l 408 168 "},"R":{"x_min":-125,"x_max":715.28125,"ha":778,"o":"m 715 183 q 652 55 715 115 q 520 -20 595 -1 q 415 -36 463 -36 q 276 29 315 -36 q 259 88 259 55 q 304 197 259 144 q 422 276 348 251 q 529 295 476 295 q 647 268 597 295 l 647 937 l -125 937 l -125 1067 l 715 1067 l 715 183 "},"o":{"x_min":47,"x_max":647,"ha":694,"o":"m 348 640 q 561 547 476 640 q 647 325 647 454 q 574 98 647 197 q 338 -19 488 -19 q 126 80 210 -19 q 47 304 47 173 q 128 535 47 437 q 348 640 216 640 m 324 593 q 223 545 263 593 q 173 363 173 484 q 213 151 173 244 q 370 28 267 28 q 521 266 521 28 q 480 475 521 384 q 324 593 427 593 "},"5":{"x_min":8,"x_max":614,"ha":650,"o":"m 137 325 q 324 374 217 374 q 508 325 431 374 q 609 176 594 271 q 614 129 614 153 q 559 -33 614 39 q 413 -137 505 -105 q 269 -161 345 -161 q 17 -45 88 -161 q 8 1 8 -23 q 74 63 8 73 q 114 19 110 58 q 120 -43 117 -11 q 262 -107 156 -107 q 412 -66 351 -107 q 490 45 474 -25 q 497 111 497 77 q 462 238 497 186 q 345 311 421 298 q 309 314 327 314 q 109 238 210 314 q 69 250 82 230 l 96 695 q 552 697 331 679 q 589 662 589 691 q 523 619 589 628 q 160 613 431 606 l 137 325 "}}}
